<?xml version="1.0" encoding="UTF-8"?>
<!DOCTYPE svg PUBLIC "-//W3C//DTD SVG 1.1//EN" "http://www.w3.org/Graphics/SVG/1.1/DTD/svg11.dtd">
<svg xmlns="http://www.w3.org/2000/svg" version="1.1" width="782px" height="240px" style="shape-rendering:geometricPrecision; text-rendering:geometricPrecision; image-rendering:optimizeQuality; fill-rule:evenodd; clip-rule:evenodd" xmlns:xlink="http://www.w3.org/1999/xlink">
<g><path style="opacity:0.998" fill="#64dea6" d="M 702.5,116.5 C 703.167,117.833 704.167,118.833 705.5,119.5C 707.983,123.586 709.316,128.086 709.5,133C 709.101,143.856 706.101,153.856 700.5,163C 696.743,165.487 692.743,166.153 688.5,165C 684.835,169.855 680.835,174.355 676.5,178.5C 674.067,179.548 674.067,180.214 676.5,180.5C 703.607,178.481 730.774,176.481 758,174.5C 759.833,174.833 761.667,175.167 763.5,175.5C 764.833,176.5 764.833,177.5 763.5,178.5C 762.271,179.281 760.938,179.781 759.5,180C 731.827,181.956 704.161,183.956 676.5,186C 675.724,187.77 675.89,189.603 677,191.5C 677.667,194.833 677.667,198.167 677,201.5C 675.561,207.172 673.395,207.672 670.5,203C 671.919,197.369 671.586,191.869 669.5,186.5C 668.614,185.224 667.614,185.224 666.5,186.5C 666.624,187.107 666.957,187.44 667.5,187.5C 668.833,192.167 668.833,196.833 667.5,201.5C 665.833,201.5 664.167,201.5 662.5,201.5C 662.587,196.463 662.254,191.463 661.5,186.5C 642.787,187.138 624.12,188.138 605.5,189.5C 603.602,188.266 601.935,188.599 600.5,190.5C 601.246,191.736 601.579,193.07 601.5,194.5C 601.664,197.187 601.497,199.854 601,202.5C 599.51,203.728 598.01,203.728 596.5,202.5C 596.812,198.325 596.145,194.325 594.5,190.5C 593.5,189.167 592.5,189.167 591.5,190.5C 593.055,192.943 593.722,195.61 593.5,198.5C 592.735,201.096 592.401,203.763 592.5,206.5C 591.415,208.582 589.915,208.916 588,207.5C 587.34,204.953 587.507,202.453 588.5,200C 588.153,196.224 586.819,192.891 584.5,190C 563.668,190.075 542.835,190.575 522,191.5C 519.167,191.333 516.333,191.167 513.5,191C 512.167,189.333 512.167,187.667 513.5,186C 528.221,185.933 542.888,185.266 557.5,184C 555.676,159.803 562.51,138.303 578,119.5C 594.676,101.531 612.676,85.1976 632,70.5C 635.412,52.6485 631.246,36.8151 619.5,23C 617.099,20.9376 614.433,19.2709 611.5,18C 608.097,17.4217 604.93,16.2551 602,14.5C 601.289,12.6332 601.789,11.1332 603.5,10C 608.572,9.24891 613.572,9.58224 618.5,11C 624.618,14.3937 630.951,17.2271 637.5,19.5C 668.138,10.3941 686.638,21.3941 693,52.5C 695.037,68.7577 696.037,85.091 696,101.5C 696.552,107.263 698.718,112.263 702.5,116.5 Z M 691.5,122.5 C 690.702,125.171 690.035,128.004 689.5,131C 689.639,132.301 690.305,133.134 691.5,133.5C 693.299,140.169 692.466,146.502 689,152.5C 683.297,163.533 675.464,172.699 665.5,180C 631.224,182.569 596.891,184.069 562.5,184.5C 559.594,166.584 566.594,154.418 583.5,148C 601.194,145.077 615.028,136.244 625,121.5C 625.49,120.207 625.657,118.873 625.5,117.5C 623.801,117.34 622.134,117.506 620.5,118C 611.083,132.384 597.75,140.717 580.5,143C 576.003,145.356 571.67,147.856 567.5,150.5C 571.112,139.731 576.612,130.064 584,121.5C 600.437,104.724 617.77,89.0573 636,74.5C 641.034,58.364 639.2,43.0307 630.5,28.5C 631.1,27.1001 632.1,26.1001 633.5,25.5C 639.906,24.8162 646.239,23.6495 652.5,22C 669.935,21.0968 680.935,29.0968 685.5,46C 686.461,49.8026 687.294,53.636 688,57.5C 689.664,73.4551 690.664,89.4551 691,105.5C 691.532,108.264 692.366,110.93 693.5,113.5C 692.067,116.333 691.4,119.333 691.5,122.5 Z M 698.5,119.5 C 702.067,122.987 703.733,127.32 703.5,132.5C 703.759,142.481 701.093,151.481 695.5,159.5C 693.821,159.715 692.821,159.048 692.5,157.5C 694.592,154.912 695.925,151.912 696.5,148.5C 698.017,146.538 698.684,144.205 698.5,141.5C 698.493,139.631 698.16,137.964 697.5,136.5C 696.686,131.881 696.353,127.214 696.5,122.5C 697.167,121.5 697.833,120.5 698.5,119.5 Z"/></g>
<g><path style="opacity:0.373" fill="#c7f4e0" d="M 633.5,25.5 C 632.1,26.1001 631.1,27.1001 630.5,28.5C 629.596,27.791 629.263,26.791 629.5,25.5C 630.833,25.5 632.167,25.5 633.5,25.5 Z"/></g>
<g><path style="opacity:1" fill="#65dfa6" d="M 665.5,30.5 C 671.356,30.854 673.523,33.854 672,39.5C 666.723,44.1419 663.223,43.1419 661.5,36.5C 661.67,33.6736 663.003,31.6736 665.5,30.5 Z"/></g>
<g><path style="opacity:0.022" fill="#ecf7f2" d="M 396.5,36.5 C 397.793,35.8418 399.293,35.5085 401,35.5C 403.544,35.336 405.71,36.0027 407.5,37.5C 403.865,36.8857 400.198,36.5524 396.5,36.5 Z"/></g>
<g><path style="opacity:0.999" fill="#65dea7" d="M 225.5,140.5 C 228.167,139.833 229.833,138.167 230.5,135.5C 235.155,126.132 235.155,116.632 230.5,107C 231.32,104.846 232.82,103.346 235,102.5C 241.375,114.728 250.875,117.895 263.5,112C 265.808,109.64 267.308,106.806 268,103.5C 269.555,101.854 271.221,101.521 273,102.5C 270.898,114.005 268.398,125.505 265.5,137C 266.424,139.884 268.424,141.051 271.5,140.5C 278.443,138.748 284.276,135.081 289,129.5C 291.963,121.028 294.296,112.361 296,103.5C 298.573,102.017 300.74,102.517 302.5,105C 301.944,105.383 301.611,105.883 301.5,106.5C 300.297,107.943 299.797,109.609 300,111.5C 301.039,110.756 301.539,109.756 301.5,108.5C 305.45,104.515 310.116,103.182 315.5,104.5C 315.035,111.199 318.202,114.532 325,114.5C 327.253,114.369 329.419,113.869 331.5,113C 337.574,103.141 346.24,99.641 357.5,102.5C 360.766,86.5368 365.932,71.2035 373,56.5C 377.963,46.3638 385.796,39.6972 396.5,36.5C 400.198,36.5524 403.865,36.8857 407.5,37.5C 411.141,37.6516 413.807,39.3182 415.5,42.5C 415.672,43.4916 415.338,44.1583 414.5,44.5C 408.737,42.9173 402.737,42.584 396.5,43.5C 395.29,43.9321 394.29,44.5987 393.5,45.5C 384.732,51.1123 378.232,58.7789 374,68.5C 366.473,88.276 360.973,108.609 357.5,129.5C 356.362,132.304 356.195,135.304 357,138.5C 357.383,139.056 357.883,139.389 358.5,139.5C 362.921,140.31 366.921,139.143 370.5,136C 374.382,131.786 377.882,127.286 381,122.5C 381.991,123.43 382.491,124.596 382.5,126C 378.376,139.481 369.376,145.814 355.5,145C 354,143.5 352.5,142 351,140.5C 341.954,149.147 334.287,148.147 328,137.5C 327.537,134.02 328.037,130.686 329.5,127.5C 330.924,125.485 331.59,123.152 331.5,120.5C 331.209,119.351 330.376,118.684 329,118.5C 323.466,120.106 318.3,119.272 313.5,116C 311.781,114.13 310.781,111.963 310.5,109.5C 307.383,109.642 304.883,110.976 303,113.5C 297.359,123.389 294.193,134.056 293.5,145.5C 291.533,145.739 289.699,145.406 288,144.5C 287.747,141.8 287.747,139.133 288,136.5C 280.956,145.139 272.456,147.472 262.5,143.5C 260.97,141.774 259.97,139.774 259.5,137.5C 261.169,130.823 262.836,124.156 264.5,117.5C 264.167,117.167 263.833,116.833 263.5,116.5C 255.619,120.417 247.786,120.417 240,116.5C 240.497,125.18 238.497,133.18 234,140.5C 229.272,146.401 223.439,147.901 216.5,145C 213.865,143.039 212.031,140.539 211,137.5C 213.689,111.741 219.689,86.741 229,62.5C 232.471,54.3833 237.305,47.2166 243.5,41C 252.305,35.0441 261.638,34.0441 271.5,38C 274.709,39.583 275.876,42.083 275,45.5C 267.961,41.7371 260.794,41.5704 253.5,45C 245.617,49.8823 239.451,56.3823 235,64.5C 231.209,72.5396 228.209,80.8729 226,89.5C 222.638,104.475 219.472,119.475 216.5,134.5C 217.933,138.944 220.933,140.944 225.5,140.5 Z M 347.5,106.5 C 349.927,106.523 352.26,107.023 354.5,108C 354.371,116.597 352.871,125.097 350,133.5C 347.909,137.423 344.742,140.089 340.5,141.5C 337.167,140.167 334.833,137.833 333.5,134.5C 335.269,127.157 337.102,119.824 339,112.5C 341.322,109.605 344.155,107.605 347.5,106.5 Z"/></g>
<g><path style="opacity:0.999" fill="#54db9e" d="M 469.5,36.5 C 469.427,38.0269 470.094,39.0269 471.5,39.5C 472.662,93.7628 472.829,148.096 472,202.5C 468.49,207.789 463.99,208.789 458.5,205.5C 457.194,204.088 456.36,202.421 456,200.5C 455.653,147.467 455.819,94.4668 456.5,41.5C 456.733,39.9382 457.4,38.6049 458.5,37.5C 461.77,33.8933 465.437,33.56 469.5,36.5 Z"/></g>
<g><path style="opacity:0.106" fill="#ecf7f3" d="M 458.5,37.5 C 457.4,38.6049 456.733,39.9382 456.5,41.5C 455.024,39.2911 455.691,37.9577 458.5,37.5 Z"/></g>
<g><path style="opacity:0.408" fill="#c2f3dd" d="M 469.5,36.5 C 470.906,36.9731 471.573,37.9731 471.5,39.5C 470.094,39.0269 469.427,38.0269 469.5,36.5 Z"/></g>
<g><path style="opacity:0.016" fill="#eaf7f1" d="M 396.5,43.5 C 396.179,45.0481 395.179,45.7148 393.5,45.5C 394.29,44.5987 395.29,43.9321 396.5,43.5 Z"/></g>
<g><path style="opacity:0.3" fill="#c5f3e0" d="M 415.5,42.5 C 416.776,43.3864 416.776,44.3864 415.5,45.5C 414.893,45.3764 414.56,45.0431 414.5,44.5C 415.338,44.1583 415.672,43.4916 415.5,42.5 Z"/></g>
<g><path style="opacity:0.999" fill="#67dfa8" d="M 51.5,114.5 C 51.9321,115.71 52.5987,116.71 53.5,117.5C 57.5353,134.168 50.8686,143.501 33.5,145.5C 28.5,145.5 23.5,145.5 18.5,145.5C 14.8701,145.235 11.7034,143.902 9,141.5C 8.84221,136.588 9.34221,131.754 10.5,127C 11.3317,126.312 11.9984,126.479 12.5,127.5C 12.9411,131.695 14.2744,135.528 16.5,139C 27.109,143.353 36.7757,141.853 45.5,134.5C 47.8793,131.243 48.8793,127.576 48.5,123.5C 48.0075,121.181 47.0075,119.181 45.5,117.5C 39.0746,111.513 32.9079,105.179 27,98.5C 23.9029,92.1679 24.4029,86.1679 28.5,80.5C 29.8333,79.8333 30.8333,78.8333 31.5,77.5C 35.5098,73.7732 40.3431,72.1066 46,72.5C 51.6911,72.1748 56.6911,73.8415 61,77.5C 61.9141,82.1964 61.4141,86.6964 59.5,91C 58.552,91.4828 57.552,91.6495 56.5,91.5C 57.2277,78.3333 51.2277,74.1666 38.5,79C 31.45,82.6718 29.6166,88.1718 33,95.5C 39.3146,101.648 45.4813,107.982 51.5,114.5 Z"/></g>
<g><path style="opacity:0.471" fill="#bcf1da" d="M 31.5,77.5 C 30.8333,78.8333 29.8333,79.8333 28.5,80.5C 28.5,78.5 29.5,77.5 31.5,77.5 Z"/></g>
<g><path style="opacity:1" fill="#71e1ac" d="M 272.5,80.5 C 279.617,79.7468 281.284,82.4135 277.5,88.5C 270.203,89.9737 268.536,87.307 272.5,80.5 Z"/></g>
<g><path style="opacity:0.396" fill="#daf6ea" d="M 98.5,101.5 C 97.8166,99.8235 96.4832,99.1568 94.5,99.5C 96.0686,97.0348 97.7353,97.2015 99.5,100C 99.4301,100.765 99.0967,101.265 98.5,101.5 Z"/></g>
<g><path style="opacity:0.004" fill="#daf7ea" d="M 195.5,98.5 C 195.11,101.839 194.61,105.173 194,108.5C 193.283,107.956 192.783,107.289 192.5,106.5C 193.251,103.754 194.251,101.087 195.5,98.5 Z"/></g>
<g><path style="opacity:0.524" fill="#b5efd5" d="M 93.5,99.5 C 93.5,100.833 93.5,102.167 93.5,103.5C 89.7657,103.323 86.0991,103.656 82.5,104.5C 82.6107,103.883 82.944,103.383 83.5,103C 86.095,102.774 88.595,102.274 91,101.5C 91.3333,101.833 91.6667,102.167 92,102.5C 92.2321,101.263 92.7321,100.263 93.5,99.5 Z"/></g>
<g><path style="opacity:0.518" fill="#bcf1da" d="M 301.5,106.5 C 301.5,107.167 301.5,107.833 301.5,108.5C 301.539,109.756 301.039,110.756 300,111.5C 299.797,109.609 300.297,107.943 301.5,106.5 Z"/></g>
<g><path style="opacity:0.017" fill="#eff8f4" d="M 51.5,114.5 C 54.0069,114.632 54.6736,115.632 53.5,117.5C 52.5987,116.71 51.9321,115.71 51.5,114.5 Z"/></g>
<g><path style="opacity:0.01" fill="#e3f7ee" d="M 45.5,117.5 C 47.0075,119.181 48.0075,121.181 48.5,123.5C 46.461,122.089 45.461,120.089 45.5,117.5 Z"/></g>
<g><path style="opacity:0.09" fill="#ecf7f3" d="M 702.5,116.5 C 704.5,116.5 705.5,117.5 705.5,119.5C 704.167,118.833 703.167,117.833 702.5,116.5 Z"/></g>
<g><path style="opacity:0.004" fill="#e3f9ef" d="M 698.5,119.5 C 697.833,120.5 697.167,121.5 696.5,122.5C 696.238,121.022 696.571,119.689 697.5,118.5C 698.107,118.624 698.44,118.957 698.5,119.5 Z"/></g>
<g><path style="opacity:0.549" fill="#bef0da" d="M 691.5,122.5 C 691.5,126.167 691.5,129.833 691.5,133.5C 690.305,133.134 689.639,132.301 689.5,131C 690.035,128.004 690.702,125.171 691.5,122.5 Z"/></g>
<g><path style="opacity:0.569" fill="#b1efd3" d="M 331.5,120.5 C 331.59,123.152 330.924,125.485 329.5,127.5C 329.41,124.848 330.076,122.515 331.5,120.5 Z"/></g>
<g><path style="opacity:0.248" fill="#d1f4e4" d="M 357.5,129.5 C 357.616,132.86 357.949,136.193 358.5,139.5C 357.883,139.389 357.383,139.056 357,138.5C 356.195,135.304 356.362,132.304 357.5,129.5 Z"/></g>
<g><path style="opacity:0.69" fill="#a6edcb" d="M 230.5,135.5 C 229.833,138.167 228.167,139.833 225.5,140.5C 226.833,138.5 228.5,136.833 230.5,135.5 Z"/></g>
<g><path style="opacity:0.855" fill="#bdf0d8" d="M 183.5,149.5 C 183.517,147.435 183.85,145.435 184.5,143.5C 185.833,143.167 185.833,142.833 184.5,142.5C 185.523,140.094 186.19,140.094 186.5,142.5C 186.061,145.176 185.061,147.509 183.5,149.5 Z"/></g>
<g><path style="opacity:0.75" fill="#9feac8" d="M 18.5,145.5 C 23.5,145.5 28.5,145.5 33.5,145.5C 30.1027,146.198 26.6027,146.865 23,147.5C 21.3775,146.901 19.8775,146.234 18.5,145.5 Z"/></g>
<g><path style="opacity:0.31" fill="#cbf4e2" d="M 697.5,136.5 C 698.16,137.964 698.493,139.631 698.5,141.5C 698.684,144.205 698.017,146.538 696.5,148.5C 697.272,144.548 697.605,140.548 697.5,136.5 Z"/></g>
<g><path style="opacity:0.998" fill="#64dea6" d="M 195.5,98.5 C 198.152,99.1522 199.819,100.819 200.5,103.5C 196.955,118.565 193.288,133.565 189.5,148.5C 188.542,150.302 187.875,152.302 187.5,154.5C 184.723,170.344 178.556,184.677 169,197.5C 156.491,208.86 142.658,210.694 127.5,203C 120.702,198.268 118.536,192.101 121,184.5C 126.677,197.403 136.511,202.57 150.5,200C 162.209,195.959 170.376,188.126 175,176.5C 178.543,167.706 181.376,158.706 183.5,149.5C 185.061,147.509 186.061,145.176 186.5,142.5C 186.19,140.094 185.523,140.094 184.5,142.5C 182.847,142.66 181.514,143.326 180.5,144.5C 172.015,147.853 165.848,145.186 162,136.5C 155.545,144.66 147.379,147.493 137.5,145C 135.522,141.067 135.022,136.9 136,132.5C 137.674,125.315 139.84,118.315 142.5,111.5C 143.043,111.44 143.376,111.107 143.5,110.5C 142.743,109.227 142.077,109.227 141.5,110.5C 134.838,116.329 128.671,122.663 123,129.5C 120.95,134.538 119.45,139.705 118.5,145C 115.433,146.164 113.767,145.164 113.5,142C 115.979,134.916 117.812,127.749 119,120.5C 113.171,123.136 107.338,123.136 101.5,120.5C 98.8927,126.593 97.0594,132.927 96,139.5C 87.8529,148.078 79.5195,148.412 71,140.5C 70.0691,138.541 69.2357,136.541 68.5,134.5C 70.9594,127.329 72.7928,119.996 74,112.5C 75.4129,108.252 78.2462,105.585 82.5,104.5C 86.0991,103.656 89.7657,103.323 93.5,103.5C 93.5,102.167 93.5,100.833 93.5,99.5C 93.8333,99.5 94.1667,99.5 94.5,99.5C 96.4832,99.1568 97.8166,99.8235 98.5,101.5C 98.5334,113.705 104.533,118.871 116.5,117C 118.286,116.215 119.786,115.049 121,113.5C 122.069,109.433 123.569,105.766 125.5,102.5C 126.609,102.557 127.609,102.89 128.5,103.5C 129.097,103.735 129.43,104.235 129.5,105C 128.418,108.83 127.418,112.663 126.5,116.5C 125.427,117.251 125.26,118.251 126,119.5C 126.717,118.956 127.217,118.289 127.5,117.5C 127.833,116.5 128.5,115.833 129.5,115.5C 131.5,114.167 133.167,112.5 134.5,110.5C 137.796,106.004 142.13,103.504 147.5,103C 149.18,103.347 150.18,104.347 150.5,106C 147.265,115.039 144.431,124.206 142,133.5C 139.756,140.091 141.923,142.591 148.5,141C 154.33,137.669 158.997,133.169 162.5,127.5C 164.25,126.341 165.25,124.674 165.5,122.5C 165.95,107.204 173.616,100.37 188.5,102C 190.041,103.371 191.375,104.871 192.5,106.5C 192.783,107.289 193.283,107.956 194,108.5C 194.61,105.173 195.11,101.839 195.5,98.5 Z M 78.5,139.5 C 77.8333,138.167 76.8333,137.167 75.5,136.5C 76.3752,127.957 78.2085,119.624 81,111.5C 84.0498,107.87 87.8831,106.703 92.5,108C 93.4562,110.877 94.7895,113.544 96.5,116C 94.5962,122.444 92.7628,128.944 91,135.5C 88.0148,140.338 83.8482,141.672 78.5,139.5 Z M 169.5,136.5 C 170.324,133.236 170.658,129.902 170.5,126.5C 171.237,121.418 172.404,116.418 174,111.5C 182.072,103.878 187.905,105.212 191.5,115.5C 190.649,120.902 189.483,126.235 188,131.5C 184.71,136.899 179.876,139.899 173.5,140.5C 171.812,139.479 170.479,138.145 169.5,136.5 Z"/></g>
<g><path style="opacity:0.02" fill="#e9f7f1" d="M 184.5,142.5 C 184.5,142.833 184.5,143.167 184.5,143.5C 183.292,144.234 181.959,144.567 180.5,144.5C 181.514,143.326 182.847,142.66 184.5,142.5 Z"/></g>
<g><path style="opacity:0.69" fill="#bef2da" d="M 75.5,136.5 C 76.8333,137.167 77.8333,138.167 78.5,139.5C 76.5,139.5 75.5,138.5 75.5,136.5 Z"/></g>
<g><path style="opacity:0.02" fill="#e2f7ed" d="M 170.5,126.5 C 170.658,129.902 170.324,133.236 169.5,136.5C 168.506,133.103 168.84,129.77 170.5,126.5 Z"/></g>
<g><path style="opacity:0.098" fill="#e2f6ed" d="M 165.5,122.5 C 165.25,124.674 164.25,126.341 162.5,127.5C 162.75,125.326 163.75,123.659 165.5,122.5 Z"/></g>
<g><path style="opacity:0.118" fill="#caf4e2" d="M 126.5,116.5 C 126.5,117.167 126.833,117.5 127.5,117.5C 127.217,118.289 126.717,118.956 126,119.5C 125.26,118.251 125.427,117.251 126.5,116.5 Z"/></g>
<g><path style="opacity:0.408" fill="#c4f3de" d="M 134.5,110.5 C 133.167,112.5 131.5,114.167 129.5,115.5C 130.167,112.833 131.833,111.167 134.5,110.5 Z"/></g>
<g><path style="opacity:0.008" fill="#f3fcf8" d="M 141.5,110.5 C 142.077,109.227 142.743,109.227 143.5,110.5C 143.376,111.107 143.043,111.44 142.5,111.5C 142.5,110.833 142.167,110.5 141.5,110.5 Z"/></g>
<g><path style="opacity:0.026" fill="#eff8f4" d="M 125.5,102.5 C 126.947,101.115 127.947,101.448 128.5,103.5C 127.609,102.89 126.609,102.557 125.5,102.5 Z"/></g>
<g><path style="opacity:0.024" fill="#def5eb" d="M 189.5,148.5 C 190.28,150.83 189.613,152.83 187.5,154.5C 187.875,152.302 188.542,150.302 189.5,148.5 Z"/></g>
<g><path style="opacity:0.929" fill="#a3eccb" d="M 692.5,157.5 C 692.821,159.048 693.821,159.715 695.5,159.5C 693.965,160.788 692.299,160.788 690.5,159.5C 690.855,158.478 691.522,157.811 692.5,157.5 Z"/></g>
<g><path style="opacity:0.004" fill="#f3fcf8" d="M 676.5,178.5 C 676.5,179.167 676.5,179.833 676.5,180.5C 674.067,180.214 674.067,179.548 676.5,178.5 Z"/></g>
<g><path style="opacity:0.137" fill="#e9faf3" d="M 669.5,186.5 C 668.508,186.328 667.842,186.662 667.5,187.5C 666.957,187.44 666.624,187.107 666.5,186.5C 667.614,185.224 668.614,185.224 669.5,186.5 Z"/></g>
<g><path style="opacity:0.03" fill="#e6f6ef" d="M 601.5,194.5 C 602.638,197.304 602.805,200.304 602,203.5C 600.333,204.167 598.667,204.833 597,205.5C 596.517,204.552 596.351,203.552 596.5,202.5C 598.01,203.728 599.51,203.728 601,202.5C 601.497,199.854 601.664,197.187 601.5,194.5 Z"/></g>
<g><path style="opacity:0.537" fill="#caf4e1" d="M 593.5,198.5 C 594.097,198.735 594.43,199.235 594.5,200C 594.01,202.346 593.343,204.513 592.5,206.5C 592.401,203.763 592.735,201.096 593.5,198.5 Z"/></g>
<g><path style="opacity:0.998" fill="#65dea6" d="M 623.5,228.5 C 617.819,228.635 612.152,228.968 606.5,229.5C 580.382,231.117 554.215,232.45 528,233.5C 523.488,233.233 518.988,232.899 514.5,232.5C 514.286,230.856 514.62,229.356 515.5,228C 524.827,227.5 534.161,227.334 543.5,227.5C 548.695,227.821 553.695,227.487 558.5,226.5C 573.912,225.349 589.245,224.682 604.5,224.5C 613.188,224.587 621.854,224.253 630.5,223.5C 674.747,219.597 719.08,216.43 763.5,214C 764.711,215.113 764.711,216.28 763.5,217.5C 716.955,222.491 670.288,226.157 623.5,228.5 Z"/></g>
<g><path style="opacity:0.527" fill="#d6f2e6" d="M 630.5,223.5 C 621.854,224.253 613.188,224.587 604.5,224.5C 611.158,223.596 617.991,222.929 625,222.5C 627.033,222.506 628.866,222.839 630.5,223.5 Z"/></g>
<g><path style="opacity:0.51" fill="#b3efd5" d="M 558.5,226.5 C 553.695,227.487 548.695,227.821 543.5,227.5C 548.233,226.81 553.066,226.144 558,225.5C 558.399,225.728 558.565,226.062 558.5,226.5 Z"/></g>
<g><path style="opacity:0.017" fill="#e8f7f0" d="M 623.5,228.5 C 617.91,230.55 612.244,230.883 606.5,229.5C 612.152,228.968 617.819,228.635 623.5,228.5 Z"/></g>
</svg>
